<svg xmlns="http://www.w3.org/2000/svg" viewBox="0 0 400 300" width="400" height="300" role="img" aria-label="Service photo coming soon">
  <rect width="400" height="300" fill="#E6F6FF"/>
  <g fill="none" stroke="#00A6FF" stroke-width="6" stroke-linecap="round" stroke-linejoin="round" opacity="0.55">
    <path d="M150 108c-14 0-24 10-24 26 0 12 3 24 7 36 3 10 5 21 6 30 1 6 3 13 9 13 5 0 6-7 8-14 2-8 3-18 10-18s8 10 10 18c2 7 3 14 8 14 6 0 8-7 9-13 1-9 3-20 6-30 4-12 7-24 7-36 0-16-10-26-24-26-9 0-17 5-23 11-6-6-14-11-23-11z" transform="translate(50,10)"/>
  </g>
  <text x="200" y="242" font-family="Segoe UI, Helvetica, Arial, sans-serif" font-size="20" font-weight="600" fill="#00A6FF" text-anchor="middle" opacity="0.85">Photo coming soon</text>
</svg>
